<svg width="117" height="74" viewBox="0 0 117 74" fill="none" xmlns="http://www.w3.org/2000/svg">
<path d="M3.29395 58.3169L6.9289 48.4727H9.50365L13.0629 58.3169H10.6774L9.99589 56.2208H6.32307L5.64152 58.3169H3.29395ZM6.8153 54.5364H9.46579L8.32987 51.0554C8.292 50.9431 8.25414 50.8308 8.21628 50.7185C8.17841 50.6062 8.17841 50.4939 8.14055 50.3442H8.10268C8.06482 50.4939 8.06482 50.6062 8.02696 50.7185C7.98909 50.8308 7.98909 50.9431 7.95123 51.0554L6.8153 54.5364Z" fill="#094D83"/>
<path d="M14.4258 58.3169V48.4727H17.9093C19.6889 48.4727 21.0141 48.8844 21.885 49.6704C22.7559 50.4565 23.2102 51.6542 23.2102 53.2638C23.2102 54.7984 22.718 56.0336 21.7714 56.9319C20.7869 57.8303 19.4996 58.3169 17.9093 58.3169H14.4258ZM16.6219 50.2319V56.5951H17.7578C18.7423 56.5951 19.5374 56.2956 20.1054 55.7342C20.6734 55.1353 20.9384 54.3492 20.9384 53.3386C20.9384 52.3654 20.6734 51.6168 20.1054 51.0928C19.5374 50.5313 18.7802 50.2693 17.7578 50.2693H16.6219V50.2319Z" fill="#094D83"/>
<path d="M33.0927 54.0498C33.0927 55.5096 32.7519 56.6325 32.0704 57.3811C31.3888 58.1297 30.3286 58.504 28.9655 58.504C27.6403 58.504 26.6179 58.1297 25.9364 57.4185C25.2548 56.7074 24.9141 55.6219 24.9141 54.1621V48.4727H27.0723V54.1995C27.0723 55.023 27.2238 55.6219 27.5645 56.0336C27.9053 56.4453 28.3597 56.6325 29.0034 56.6325C29.6471 56.6325 30.1014 56.4453 30.4422 56.0336C30.7451 55.6593 30.9344 55.0604 30.9344 54.2744V48.4727H33.0927V54.0498Z" fill="#094D83"/>
<path d="M38.5449 57.6429L39.4537 55.9586C39.9459 56.258 40.4003 56.4452 40.7789 56.5575C41.1575 56.6697 41.5362 56.7072 41.9527 56.7072C42.4828 56.7072 42.8993 56.5949 43.1643 56.4077C43.4294 56.1831 43.5808 55.9211 43.5808 55.5468C43.5808 55.21 43.4673 54.9479 43.2779 54.7608C43.0507 54.5736 42.6721 54.4239 42.1041 54.2742C41.0061 54.0122 40.2109 53.6753 39.7187 53.1887C39.2265 52.7395 38.9614 52.1032 38.9614 51.2798C38.9614 50.4563 39.3022 49.7451 39.9459 49.1836C40.5896 48.6222 41.4983 48.3228 42.6721 48.3228C43.1643 48.3228 43.6187 48.3602 44.1109 48.4725C44.5653 48.5848 45.0197 48.7345 45.474 48.9591L44.641 50.6434C44.2624 50.4189 43.8838 50.2691 43.543 50.1943C43.2022 50.082 42.8993 50.0446 42.5964 50.0446C42.142 50.0446 41.7634 50.1194 41.5362 50.3066C41.2711 50.4937 41.1575 50.7557 41.1575 51.0926C41.1575 51.392 41.2711 51.6166 41.4983 51.8038C41.7255 51.9535 42.142 52.1407 42.7478 52.253C43.808 52.515 44.6032 52.8518 45.0575 53.3384C45.5498 53.825 45.777 54.4988 45.777 55.3597C45.777 56.2954 45.4362 57.044 44.7925 57.6055C44.1488 58.167 43.2022 58.4664 41.9527 58.4664C41.3847 58.4664 40.8168 58.3915 40.2109 58.2418C39.5672 58.1295 39.0372 57.9049 38.5449 57.6429Z" fill="#094D83"/>
<path d="M49.6397 55.0604V58.3169H47.4814V48.4727H50.9271C52.1766 48.4727 53.1232 48.7347 53.729 49.2587C54.3348 49.7827 54.6756 50.6062 54.6756 51.6542C54.6756 52.6649 54.3348 53.4883 53.6154 54.0872C52.896 54.7235 51.9494 55.023 50.7378 55.023H49.6397V55.0604ZM49.6397 50.1196V53.4135H50.5484C51.1543 53.4135 51.6086 53.2638 51.9115 53.0017C52.2145 52.7397 52.3659 52.328 52.3659 51.7665C52.3659 51.2051 52.2145 50.8308 51.9115 50.5313C51.6086 50.2693 51.1543 50.1196 50.5484 50.1196H49.6397Z" fill="#094D83"/>
<path d="M62.2103 58.3169H56.2656V48.4727H61.9831V50.2319H58.4239V52.4777H61.7181V54.2369H58.4239V56.5576H62.2103V58.3169Z" fill="#094D83"/>
<path d="M71.4496 57.7927C70.9195 58.0172 70.4273 58.2044 69.935 58.3167C69.4428 58.429 68.9127 58.4664 68.3447 58.4664C66.7923 58.4664 65.5807 58.0547 64.6719 57.1938C63.801 56.3329 63.3467 55.0977 63.3467 53.5256C63.3467 52.0284 63.8389 50.7932 64.7855 49.7825C65.77 48.8093 67.0195 48.3228 68.6098 48.3228C69.1399 48.3228 69.6321 48.3602 70.0486 48.435C70.4651 48.5099 70.9195 48.6596 71.3739 48.8093L70.6923 50.5311C70.3515 50.3814 70.0486 50.3066 69.7078 50.2317C69.4049 50.1568 69.0263 50.1568 68.6855 50.1568C67.8525 50.1568 67.1331 50.4563 66.5273 51.0177C65.9214 51.5792 65.6185 52.3652 65.6185 53.3759C65.6185 54.3865 65.8836 55.1725 66.4137 55.734C66.9438 56.2954 67.6632 56.5949 68.5719 56.5949C68.837 56.5949 69.1399 56.5574 69.5185 56.4826C69.8972 56.4077 70.2379 56.258 70.6166 56.0709L71.4496 57.7927Z" fill="#094D83"/>
<path d="M75.1983 48.4727H73.04V58.3169H75.1983V48.4727Z" fill="#094D83"/>
<path d="M76.5605 58.3169L80.1955 48.4727H82.7703L86.3295 58.3169H83.944L83.2625 56.2208H79.5897L78.9081 58.3169H76.5605ZM80.0819 54.5364H82.7324L81.5965 51.0554C81.5586 50.9431 81.5207 50.8308 81.4829 50.7185C81.445 50.6062 81.445 50.4939 81.4071 50.3442H81.3693C81.3314 50.4939 81.3314 50.6062 81.2936 50.7185C81.2557 50.8308 81.2557 50.9431 81.2178 51.0554L80.0819 54.5364Z" fill="#094D83"/>
<path d="M93.6002 58.3169H87.6934V48.4727H89.8895V56.5576H93.6002V58.3169Z" fill="#094D83"/>
<path d="M97.2344 48.4727H95.0762V58.3169H97.2344V48.4727Z" fill="#094D83"/>
<path d="M98.9004 57.6429L99.8091 55.9586C100.301 56.258 100.756 56.4452 101.134 56.5575C101.513 56.6697 101.892 56.7072 102.308 56.7072C102.838 56.7072 103.255 56.5949 103.52 56.4077C103.785 56.1831 103.936 55.9211 103.936 55.5468C103.936 55.21 103.823 54.9479 103.633 54.7608C103.406 54.5736 103.028 54.4239 102.46 54.2742C101.362 54.0122 100.566 53.6753 100.074 53.1887C99.5819 52.7395 99.3169 52.1032 99.3169 51.2798C99.3169 50.4563 99.6577 49.7451 100.301 49.1836C100.945 48.6222 101.854 48.3228 103.028 48.3228C103.52 48.3228 103.974 48.3602 104.466 48.4725C104.921 48.5848 105.375 48.7345 105.83 48.9591L104.996 50.6434C104.618 50.4189 104.239 50.2691 103.898 50.1943C103.558 50.082 103.255 50.0446 102.952 50.0446C102.497 50.0446 102.119 50.1194 101.892 50.3066C101.627 50.4937 101.513 50.7557 101.513 51.0926C101.513 51.392 101.627 51.6166 101.854 51.8038C102.081 51.9535 102.497 52.1407 103.103 52.253C104.163 52.515 104.959 52.8518 105.413 53.3384C105.905 53.825 106.132 54.4988 106.132 55.3597C106.132 56.2954 105.792 57.044 105.148 57.6055C104.504 58.167 103.558 58.4664 102.308 58.4664C101.74 58.4664 101.172 58.3915 100.566 58.2418C99.8849 58.1295 99.3548 57.9049 98.9004 57.6429Z" fill="#094D83"/>
<path d="M114.69 50.2319H111.851V58.3169H109.692V50.2319H106.853V48.4727H114.69V50.2319Z" fill="#094D83"/>
<path d="M47.2922 21.3729L58.9922 9.76949L70.7301 21.3729H79.3631L58.9922 1.23535L38.6592 21.3729H47.2922Z" fill="#094D83"/>
<path d="M71.6764 25.5278V37.281H46.0803V25.5278H39.9463V43.3073H77.7725V25.5278H71.6764Z" fill="#094D83"/>
<path d="M49.9043 10.3311H43.7324V16.8814H49.9043V10.3311Z" fill="#094D83"/>
<path d="M64.2932 26.0519C64.2932 28.6346 62.1728 30.7307 59.5602 30.7307C56.9475 30.7307 54.8271 28.6346 54.8271 26.0519C54.8271 23.4692 56.9475 21.373 59.5602 21.373C62.1728 21.373 64.2932 23.4692 64.2932 26.0519Z" fill="#094D83"/>
<path d="M77.7724 24.8164H60.4307V27.6985H77.7724V24.8164Z" fill="#094D83"/>
<path d="M114.69 60.75H3.29395V73.2892H114.69V60.75Z" fill="#094D83"/>
<path d="M17.0762 70.9311V63.4824H19.1966C19.8403 63.4824 20.3703 63.6321 20.749 63.9316C21.1276 64.231 21.3169 64.6428 21.3169 65.1668C21.3169 65.5785 21.2034 65.9528 20.9762 66.2523C20.749 66.5517 20.4461 66.7763 20.0296 66.926V66.9634C20.5218 67.0383 20.9383 67.2255 21.2412 67.5249C21.5441 67.8618 21.6956 68.2735 21.6956 68.7601C21.6956 69.3964 21.4684 69.9205 21.014 70.2948C20.5597 70.7065 19.9917 70.8936 19.2723 70.8936H17.0762V70.9311ZM17.9092 64.1936V66.7014H18.8558C19.348 66.7014 19.7267 66.5891 20.0296 66.3271C20.3325 66.1026 20.4461 65.7657 20.4461 65.3165C20.4461 64.9422 20.3325 64.6428 20.0674 64.4556C19.8024 64.2685 19.4616 64.1562 18.9315 64.1562H17.9092V64.1936ZM17.9092 67.4126V70.1825H19.1587C19.6888 70.1825 20.1053 70.0702 20.4082 69.8082C20.7111 69.5462 20.8247 69.2093 20.8247 68.7601C20.8247 68.3109 20.6733 67.9741 20.3703 67.7495C20.0674 67.5249 19.6131 67.4126 18.9694 67.4126H17.9092Z" fill="white"/>
<path d="M27.8682 70.9311L30.7458 63.4824H31.5788L34.4565 70.9311H33.5478L32.7905 68.8724H29.5342L28.7769 70.9311H27.8682ZM29.7614 68.1238H32.4876L31.2759 64.8299C31.2381 64.7551 31.2381 64.6802 31.2002 64.6053C31.1623 64.5305 31.1623 64.4182 31.1245 64.3059H31.0866C31.0487 64.4182 31.0487 64.493 31.0109 64.6053C30.973 64.6802 30.973 64.7551 30.9352 64.8299L29.7614 68.1238Z" fill="white"/>
<path d="M45.1339 63.4824L42.6728 68.1612V70.9311H41.8776V68.1987L39.4922 63.5198H40.4009L42.1048 66.926C42.1048 66.9635 42.1427 67.0009 42.1805 67.1132C42.2184 67.188 42.2563 67.3003 42.2941 67.4126C42.332 67.3378 42.332 67.2629 42.3699 67.188C42.4077 67.1132 42.4456 67.0009 42.4834 66.926L44.2631 63.5198H45.1339V63.4824Z" fill="white"/>
<path d="M59.2188 70.9311L62.0964 63.4824H62.9294L65.8071 70.9311H64.8984L64.1411 68.8724H60.8848L60.1275 70.9311H59.2188ZM61.1498 68.1238H63.876L62.6644 64.8299C62.6265 64.7551 62.6265 64.6802 62.5887 64.6053C62.5508 64.5305 62.5508 64.4182 62.5129 64.3059H62.4751C62.4372 64.4182 62.4372 64.493 62.3993 64.6053C62.3615 64.6802 62.3615 64.7551 62.3236 64.8299L61.1498 68.1238Z" fill="white"/>
<path d="M77.5833 70.9311H76.6367L75.4251 68.7975C75.1979 68.3858 75.0086 68.1238 74.8193 68.0115C74.6299 67.8992 74.4028 67.8244 74.1377 67.8244H73.2668V70.9311H72.4717V63.4824H74.6678C75.3115 63.4824 75.8794 63.6696 76.296 64.0064C76.7125 64.3433 76.9396 64.8299 76.9396 65.5037C76.9396 66.0277 76.7882 66.4769 76.5231 66.8137C76.2581 67.188 75.8416 67.4126 75.3494 67.5623V67.5998C75.5008 67.6746 75.6523 67.7869 75.8037 67.9366C75.9552 68.0864 76.0688 68.2735 76.2202 68.4981L77.5833 70.9311ZM73.229 64.1936V67.0757H74.4406C74.895 67.0757 75.2736 66.926 75.5765 66.664C75.8795 66.402 76.0309 66.0277 76.0309 65.5411C76.0309 65.1294 75.8794 64.7925 75.6144 64.5679C75.3494 64.3433 74.9707 64.1936 74.4406 64.1936H73.229Z" fill="white"/>
<path d="M88.1478 70.9311H84.21V63.4824H87.9964V64.1936H85.043V66.7763H87.7692V67.4875H85.043V70.1825H88.1478V70.9311Z" fill="white"/>
<path d="M94.3193 70.9311L97.197 63.4824H98.03L100.908 70.9311H99.9989L99.2417 68.8724H95.9854L95.2281 70.9311H94.3193ZM96.2504 68.1238H98.9766L97.765 64.8299C97.7271 64.7551 97.7271 64.6802 97.6892 64.6053C97.6514 64.5305 97.6514 64.4182 97.6135 64.3059H97.5756C97.5378 64.4182 97.5378 64.493 97.4999 64.6053C97.4621 64.6802 97.462 64.7551 97.4242 64.8299L96.2504 68.1238Z" fill="white"/>
</svg>
