<svg width="219" height="143" viewBox="0 0 219 143" fill="none" xmlns="http://www.w3.org/2000/svg">
<path d="M0.447266 113.057L7.56183 93.6348H12.6013L19.5677 113.057H14.8987L13.5647 108.922H6.37607L5.04209 113.057H0.447266ZM7.3395 105.598H12.5272L10.3039 98.7304C10.2298 98.5088 10.1557 98.2873 10.0816 98.0657C10.0075 97.8442 10.0075 97.6226 9.93335 97.3272H9.85924C9.78513 97.6226 9.78513 97.8442 9.71102 98.0657C9.63691 98.2873 9.63691 98.5088 9.5628 98.7304L7.3395 105.598Z" fill="#094D83"/>
<path d="M22.2354 113.057V93.6348H29.0535C32.5366 93.6348 35.1305 94.4471 36.835 95.9979C38.5396 97.5488 39.4289 99.912 39.4289 103.087C39.4289 106.115 38.4655 108.552 36.6127 110.325C34.6858 112.097 32.1661 113.057 29.0535 113.057H22.2354ZM26.5337 97.1057V109.66H28.757C30.6839 109.66 32.2402 109.069 33.3519 107.962C34.4635 106.78 34.9823 105.229 34.9823 103.235C34.9823 101.315 34.4635 99.8381 33.3519 98.8042C32.2402 97.6965 30.758 97.1795 28.757 97.1795H26.5337V97.1057Z" fill="#094D83"/>
<path d="M58.7714 104.638C58.7714 107.518 58.1044 109.734 56.7705 111.211C55.4365 112.688 53.3614 113.426 50.6934 113.426C48.0996 113.426 46.0986 112.688 44.7646 111.285C43.4307 109.882 42.7637 107.74 42.7637 104.86V93.6348H46.9879V104.934C46.9879 106.558 47.2844 107.74 47.9514 108.552C48.6184 109.365 49.5077 109.734 50.7676 109.734C52.0274 109.734 52.9167 109.365 53.5837 108.552C54.1766 107.814 54.5472 106.632 54.5472 105.081V93.6348H58.7714V104.638Z" fill="#094D83"/>
<path d="M69.4434 111.728L71.222 108.405C72.1854 108.995 73.0747 109.365 73.8158 109.586C74.5569 109.808 75.2981 109.882 76.1133 109.882C77.1508 109.882 77.966 109.66 78.4848 109.291C79.0036 108.848 79.3 108.331 79.3 107.592C79.3 106.928 79.0777 106.411 78.7071 106.041C78.2625 105.672 77.5213 105.377 76.4097 105.081C74.2605 104.564 72.7042 103.9 71.7408 102.94C70.7773 102.054 70.2586 100.798 70.2586 99.1734C70.2586 97.5488 70.9256 96.1456 72.1854 95.0379C73.4453 93.9301 75.2239 93.3394 77.5213 93.3394C78.4848 93.3394 79.3741 93.4132 80.3375 93.6347C81.2269 93.8563 82.1162 94.1517 83.0055 94.5948L81.3751 97.918C80.634 97.4749 79.8929 97.1795 79.2259 97.0318C78.5589 96.8103 77.966 96.7364 77.3731 96.7364C76.4838 96.7364 75.7427 96.8841 75.298 97.2534C74.7793 97.6226 74.5569 98.1396 74.5569 98.8042C74.5569 99.395 74.7793 99.8381 75.2239 100.207C75.6686 100.503 76.4838 100.872 77.6696 101.094C79.7447 101.61 81.301 102.275 82.1903 103.235C83.1537 104.195 83.5984 105.524 83.5984 107.223C83.5984 109.069 82.9314 110.546 81.6715 111.654C80.4116 112.762 78.5589 113.353 76.1133 113.353C75.0016 113.353 73.89 113.205 72.7042 112.909C71.4443 112.688 70.4068 112.245 69.4434 111.728Z" fill="#094D83"/>
<path d="M91.1579 106.632V113.057H86.9336V93.6348H93.6776C96.1232 93.6348 97.976 94.1517 99.1617 95.1856C100.348 96.2195 101.014 97.8442 101.014 99.912C101.014 101.906 100.348 103.531 98.9394 104.712C97.5313 105.968 95.6786 106.558 93.3071 106.558H91.1579V106.632ZM91.1579 96.8841V103.383H92.9365C94.1223 103.383 95.0116 103.087 95.6045 102.571C96.1974 102.054 96.4938 101.241 96.4938 100.134C96.4938 99.0258 96.1974 98.2873 95.6045 97.6965C95.0116 97.1795 94.1223 96.8841 92.9365 96.8841H91.1579Z" fill="#094D83"/>
<path d="M115.762 113.057H104.127V93.6348H115.318V97.1057H108.351V101.537H114.799V105.008H108.351V109.586H115.762V113.057Z" fill="#094D83"/>
<path d="M133.845 112.023C132.807 112.466 131.844 112.836 130.88 113.057C129.917 113.279 128.88 113.353 127.768 113.353C124.729 113.353 122.358 112.54 120.579 110.842C118.875 109.143 117.985 106.706 117.985 103.604C117.985 100.65 118.949 98.2134 120.802 96.2195C122.728 94.2994 125.174 93.3394 128.287 93.3394C129.324 93.3394 130.288 93.4132 131.103 93.5609C131.918 93.7086 132.807 94.004 133.697 94.2994L132.363 97.6965C131.696 97.4011 131.103 97.2534 130.436 97.1057C129.843 96.958 129.102 96.958 128.435 96.958C126.804 96.958 125.396 97.5488 124.211 98.6565C123.025 99.7642 122.432 101.315 122.432 103.309C122.432 105.303 122.951 106.854 123.988 107.962C125.026 109.069 126.434 109.66 128.213 109.66C128.731 109.66 129.324 109.586 130.065 109.438C130.806 109.291 131.473 108.995 132.214 108.626L133.845 112.023Z" fill="#094D83"/>
<path d="M141.182 93.6348H136.958V113.057H141.182V93.6348Z" fill="#094D83"/>
<path d="M143.851 113.057L150.965 93.6348H156.005L162.971 113.057H158.302L156.968 108.922H149.779L148.445 113.057H143.851ZM150.743 105.598H155.931L153.707 98.7304C153.633 98.5088 153.559 98.2873 153.485 98.0657C153.411 97.8442 153.411 97.6226 153.337 97.3272H153.263C153.188 97.6226 153.188 97.8442 153.114 98.0657C153.04 98.2873 153.04 98.5088 152.966 98.7304L150.743 105.598Z" fill="#094D83"/>
<path d="M177.2 113.057H165.639V93.6348H169.937V109.586H177.2V113.057Z" fill="#094D83"/>
<path d="M184.314 93.6348H180.09V113.057H184.314V93.6348Z" fill="#094D83"/>
<path d="M187.575 111.728L189.354 108.405C190.317 108.995 191.207 109.365 191.948 109.586C192.689 109.808 193.43 109.882 194.245 109.882C195.283 109.882 196.098 109.66 196.617 109.291C197.135 108.848 197.432 108.331 197.432 107.592C197.432 106.928 197.209 106.411 196.839 106.041C196.394 105.672 195.653 105.377 194.542 105.081C192.392 104.564 190.836 103.9 189.873 102.94C188.909 102.054 188.39 100.798 188.39 99.1734C188.39 97.5488 189.057 96.1456 190.317 95.0379C191.577 93.9301 193.356 93.3394 195.653 93.3394C196.617 93.3394 197.506 93.4132 198.469 93.6347C199.359 93.8563 200.248 94.1517 201.137 94.5948L199.507 97.918C198.766 97.4749 198.025 97.1795 197.358 97.0318C196.691 96.8103 196.098 96.7364 195.505 96.7364C194.616 96.7364 193.875 96.8841 193.43 97.2534C192.911 97.6226 192.689 98.1396 192.689 98.8042C192.689 99.395 192.911 99.8381 193.356 100.207C193.8 100.503 194.616 100.872 195.801 101.094C197.876 101.61 199.433 102.275 200.322 103.235C201.286 104.195 201.73 105.524 201.73 107.223C201.73 109.069 201.063 110.546 199.803 111.654C198.543 112.762 196.691 113.353 194.245 113.353C193.133 113.353 192.022 113.205 190.836 112.909C189.502 112.688 188.465 112.245 187.575 111.728Z" fill="#094D83"/>
<path d="M218.479 97.1057H212.921V113.057H208.697V97.1057H203.139V93.6348H218.479V97.1057Z" fill="#094D83"/>
<path d="M86.5631 40.1679L109.463 17.2746L132.437 40.1679H149.334L109.463 0.437012L69.666 40.1679H86.5631Z" fill="#094D83"/>
<path d="M134.29 48.3652V71.5539H84.1914V48.3652H72.1855V83.4436H146.221V48.3652H134.29Z" fill="#094D83"/>
<path d="M91.6766 18.3823H79.5967V31.3059H91.6766V18.3823Z" fill="#094D83"/>
<path d="M119.838 49.3991C119.838 54.4947 115.688 58.6303 110.574 58.6303C105.461 58.6303 101.311 54.4947 101.311 49.3991C101.311 44.3035 105.461 40.168 110.574 40.168C115.688 40.168 119.838 44.3035 119.838 49.3991Z" fill="#094D83"/>
<path d="M146.222 46.9622H112.279V52.6485H146.222V46.9622Z" fill="#094D83"/>
<path d="M218.479 117.857H0.447266V142.597H218.479V117.857Z" fill="#094D83"/>
<path d="M27.4229 137.944V123.248H31.573C32.8329 123.248 33.8704 123.544 34.6115 124.134C35.3526 124.725 35.7232 125.538 35.7232 126.572C35.7232 127.384 35.5008 128.122 35.0562 128.713C34.6115 129.304 34.0186 129.747 33.2034 130.042V130.116C34.1669 130.264 34.9821 130.633 35.575 131.224C36.1678 131.889 36.4643 132.701 36.4643 133.661C36.4643 134.916 36.0196 135.95 35.1303 136.689C34.241 137.501 33.1293 137.87 31.7212 137.87H27.4229V137.944ZM29.0533 124.651V129.599H30.906C31.8695 129.599 32.6106 129.378 33.2034 128.861C33.7963 128.418 34.0186 127.753 34.0186 126.867C34.0186 126.128 33.7963 125.538 33.2775 125.168C32.7588 124.799 32.0918 124.578 31.0542 124.578H29.0533V124.651ZM29.0533 131.002V136.467H31.4989C32.5364 136.467 33.3517 136.246 33.9445 135.729C34.5374 135.212 34.7597 134.547 34.7597 133.661C34.7597 132.775 34.4633 132.11 33.8704 131.667C33.2775 131.224 32.3882 131.002 31.1284 131.002H29.0533Z" fill="white"/>
<path d="M48.5449 137.944L54.1773 123.248H55.8077L61.4401 137.944H59.6614L58.1792 133.883H51.8058L50.3236 137.944H48.5449ZM52.2504 132.406H57.5863L55.2148 125.907C55.1407 125.759 55.1407 125.611 55.0666 125.464C54.9925 125.316 54.9925 125.095 54.9184 124.873H54.8443C54.7702 125.095 54.7702 125.242 54.6961 125.464C54.6219 125.611 54.6219 125.759 54.5478 125.907L52.2504 132.406Z" fill="white"/>
<path d="M82.3393 123.248L77.5221 132.479V137.944H75.9658V132.553L71.2969 123.322H73.0755L76.4105 130.042C76.4105 130.116 76.4846 130.19 76.5587 130.412C76.6328 130.559 76.7069 130.781 76.781 131.002C76.8551 130.855 76.8551 130.707 76.9292 130.559C77.0033 130.412 77.0775 130.19 77.1516 130.042L80.6347 123.322H82.3393V123.248Z" fill="white"/>
<path d="M109.908 137.944L115.541 123.248H117.171L122.803 137.944H121.025L119.543 133.883H113.169L111.687 137.944H109.908ZM113.688 132.406H119.024L116.652 125.907C116.578 125.759 116.578 125.611 116.504 125.464C116.43 125.316 116.43 125.095 116.356 124.873H116.282C116.208 125.095 116.208 125.242 116.133 125.464C116.059 125.611 116.059 125.759 115.985 125.907L113.688 132.406Z" fill="white"/>
<path d="M145.852 137.944H143.999L141.627 133.735C141.183 132.923 140.812 132.406 140.442 132.184C140.071 131.962 139.626 131.815 139.108 131.815H137.403V137.944H135.847V123.248H140.145C141.405 123.248 142.517 123.618 143.332 124.282C144.147 124.947 144.592 125.907 144.592 127.236C144.592 128.27 144.295 129.156 143.776 129.821C143.258 130.559 142.442 131.002 141.479 131.298V131.372C141.775 131.519 142.072 131.741 142.368 132.036C142.665 132.332 142.887 132.701 143.184 133.144L145.852 137.944ZM137.329 124.651V130.338H139.7C140.59 130.338 141.331 130.042 141.924 129.525C142.517 129.009 142.813 128.27 142.813 127.31C142.813 126.498 142.517 125.833 141.998 125.39C141.479 124.947 140.738 124.651 139.7 124.651H137.329Z" fill="white"/>
<path d="M166.528 137.944H158.82V123.248H166.231V124.651H160.451V129.747H165.787V131.15H160.451V136.467H166.528V137.944Z" fill="white"/>
<path d="M178.607 137.944L184.24 123.248H185.87L191.503 137.944H189.724L188.242 133.883H181.868L180.386 137.944H178.607ZM182.387 132.406H187.723L185.351 125.907C185.277 125.759 185.277 125.611 185.203 125.464C185.129 125.316 185.129 125.095 185.055 124.873H184.981C184.907 125.095 184.907 125.242 184.833 125.464C184.759 125.611 184.759 125.759 184.684 125.907L182.387 132.406Z" fill="white"/>
</svg>
