<svg width="24" height="24" viewBox="0 0 24 24" fill="none" xmlns="http://www.w3.org/2000/svg">
<g clip-path="url(#clip0_2582_190)">
<path d="M22.4689 11.7887V4.24533C22.4689 2.41046 20.9761 0.917725 19.1413 0.917725H4.76306C2.92819 0.917725 1.43545 2.41051 1.43545 4.24533V11.8861C0.546703 12.8152 0 14.0741 0 15.4584V21.1782C0 22.2281 0.854203 23.0824 1.9042 23.0824C2.95416 23.0824 3.80836 22.2281 3.80836 21.1782V20.5875H20.1917V21.1782C20.1917 22.2281 21.0459 23.0824 22.0958 23.0824C23.1458 23.0824 24 22.2282 24 21.1782V15.4584C24 14.0251 23.4139 12.7263 22.4689 11.7887ZM4.76306 1.85522H19.1413C20.4592 1.85522 21.5314 2.92744 21.5314 4.24533V11.051C21.2443 10.8742 20.9387 10.7247 20.6183 10.6061V9.0473C20.6183 7.66543 19.494 6.54118 18.1122 6.54118H14.0374C13.1985 6.54118 12.4552 6.95588 12 7.59062C11.5449 6.95588 10.8015 6.54118 9.96267 6.54118H5.88792C4.50605 6.54118 3.3818 7.66538 3.3818 9.0473V10.6061C3.0255 10.7379 2.68758 10.908 2.373 11.1113V4.24533C2.37295 2.92744 3.44513 1.85522 4.76306 1.85522ZM5.17186 10.2865C4.88147 10.2865 4.59666 10.311 4.3192 10.3572V9.0473C4.3192 8.18237 5.02289 7.47868 5.88783 7.47868H9.96258C10.8275 7.47868 11.5312 8.18237 11.5312 9.0473V10.2865H5.17186V10.2865ZM12.4688 9.04726C12.4688 8.18232 13.1724 7.47863 14.0374 7.47863H18.1121C18.9771 7.47863 19.6807 8.18232 19.6807 9.04726V10.3571C19.4032 10.3109 19.1185 10.2864 18.8281 10.2864H12.4688V9.04726ZM5.17186 11.224H18.8281C21.1629 11.224 23.0625 13.1235 23.0625 15.4584V16.849H18.3611C18.1022 16.849 17.8923 17.0589 17.8923 17.3177C17.8923 17.5766 18.1022 17.7865 18.3611 17.7865H23.0625V19.65H0.9375V17.7865H13.6736C13.9325 17.7865 14.1423 17.5766 14.1423 17.3177C14.1423 17.0589 13.9325 16.849 13.6736 16.849H0.9375V15.4584C0.9375 13.1235 2.83702 11.224 5.17186 11.224ZM2.87086 21.1782C2.87086 21.7112 2.43722 22.1449 1.9042 22.1449C1.37119 22.1449 0.9375 21.7112 0.9375 21.1782V20.5875H2.87086V21.1782ZM22.0958 22.1449C21.5628 22.1449 21.1291 21.7112 21.1291 21.1782V20.5875H23.0625V21.1782C23.0625 21.7112 22.6289 22.1449 22.0958 22.1449Z" fill="#084C83"/>
<path d="M16.0173 17.7868C16.2763 17.7868 16.4863 17.5769 16.4863 17.3179C16.4863 17.0588 16.2763 16.8489 16.0173 16.8489C15.7583 16.8489 15.5483 17.0588 15.5483 17.3179C15.5483 17.5769 15.7583 17.7868 16.0173 17.7868Z" fill="#084C83"/>
</g>
<defs>
<clipPath id="clip0_2582_190">
<rect width="24" height="24" fill="white"/>
</clipPath>
</defs>
</svg>
