<svg width="26" height="26" viewBox="0 0 26 26" fill="none" xmlns="http://www.w3.org/2000/svg">
<g clip-path="url(#clip0_2582_204)">
<path d="M23.9465 12.5269V9.85156C23.9465 9.7573 23.909 9.66692 23.8424 9.60027C23.7757 9.53362 23.6853 9.49615 23.5911 9.49609H23.2362V2.79906C23.2362 2.42853 23.1262 2.06634 22.9203 1.75828C22.7144 1.45022 22.4218 1.21013 22.0795 1.06836C21.7372 0.926583 21.3605 0.889496 20.9971 0.961785C20.6336 1.03407 20.2998 1.21249 20.0378 1.47448L19.5452 1.96706C19.0501 1.59357 18.4368 1.41137 17.818 1.45395C17.1993 1.49653 16.6167 1.76103 16.1774 2.19883C16.1444 2.23182 16.1182 2.27101 16.1003 2.31414C16.0824 2.35727 16.0732 2.4035 16.0732 2.45019C16.0732 2.49688 16.0824 2.54312 16.1003 2.58625C16.1182 2.62938 16.1444 2.66857 16.1774 2.70156L19.3135 5.83741C19.3464 5.87044 19.3856 5.89664 19.4287 5.91452C19.4718 5.9324 19.5181 5.9416 19.5647 5.9416C19.6114 5.9416 19.6576 5.9324 19.7007 5.91452C19.7439 5.89664 19.783 5.87044 19.816 5.83741C20.2539 5.3982 20.5186 4.81568 20.5613 4.19694C20.604 3.57819 20.422 2.96482 20.0486 2.46959L20.5412 1.97701C20.7038 1.81445 20.9109 1.70374 21.1364 1.6589C21.3619 1.61405 21.5957 1.63708 21.8081 1.72506C22.0205 1.81305 22.2021 1.96204 22.3299 2.15321C22.4576 2.34438 22.5259 2.56913 22.5259 2.79906V9.49691H22.1706C22.0764 9.49696 21.986 9.53443 21.9193 9.60108C21.8527 9.66773 21.8152 9.75811 21.8152 9.85237V12.504H16.4975C16.406 11.9063 16.0869 11.3671 15.6071 10.9992C15.1273 10.6312 14.5239 10.4629 13.9229 10.5294C13.8757 10.2682 13.7721 10.0205 13.6194 9.80348C13.4666 9.58646 13.2684 9.40537 13.0384 9.27283C12.8085 9.14029 12.5524 9.05948 12.2881 9.03605C12.0237 9.01263 11.7574 9.04713 11.5078 9.13717C11.2339 8.6344 10.8013 8.2365 10.2774 8.00563C9.75347 7.77477 9.16785 7.72395 8.61201 7.86112C8.05617 7.99829 7.56143 8.31571 7.20507 8.7638C6.84872 9.21189 6.65083 9.76539 6.64233 10.3378C6.07859 10.3857 5.54897 10.6278 5.14404 11.0229C4.7391 11.4181 4.48401 11.9416 4.42238 12.504H2.29688C1.93337 12.5044 1.58488 12.649 1.32784 12.906C1.0708 13.1631 0.926211 13.5116 0.925781 13.8751V15.0696C0.925835 15.1639 0.963303 15.2543 1.02996 15.3209C1.09661 15.3876 1.18699 15.4251 1.28125 15.4251H2.13295L3.69702 21.5392C3.77631 21.8497 3.93817 22.133 4.16544 22.359C4.3927 22.585 4.67689 22.7453 4.98787 22.8229L4.58447 24.6431C4.57302 24.6951 4.57336 24.7489 4.58548 24.8007C4.5976 24.8525 4.62118 24.9009 4.65449 24.9424C4.6878 24.9839 4.72998 25.0174 4.77794 25.0404C4.8259 25.0634 4.87841 25.0753 4.93161 25.0754H6.22206C6.28635 25.0754 6.34943 25.058 6.40459 25.0249C6.45975 24.9919 6.50492 24.9446 6.53528 24.8879L7.61367 22.877H18.3874L19.4656 24.8879C19.496 24.9446 19.5412 24.9919 19.5964 25.0249C19.6516 25.0579 19.7147 25.0754 19.779 25.0754H21.0695C21.1227 25.0753 21.1752 25.0634 21.2232 25.0404C21.2711 25.0174 21.3133 24.9839 21.3466 24.9424C21.3799 24.9009 21.4035 24.8525 21.4156 24.8007C21.4277 24.7489 21.4281 24.6951 21.4166 24.6431L21.0132 22.8229C21.3242 22.7453 21.6084 22.585 21.8357 22.359C22.0629 22.133 22.2248 21.8497 22.3041 21.5392L23.8671 15.4251H24.719C24.8133 15.4251 24.9037 15.3876 24.9703 15.3209C25.037 15.2543 25.0744 15.1639 25.0745 15.0696V13.8751C25.074 13.5539 24.9608 13.243 24.7547 12.9967C24.5486 12.7504 24.2626 12.5841 23.9465 12.5269ZM19.5408 5.05964L16.9552 2.47406C17.3136 2.23281 17.7448 2.12366 18.1748 2.16528C18.6049 2.2069 19.0071 2.39672 19.3126 2.70223C19.6181 3.00775 19.8079 3.40996 19.8495 3.84001C19.8912 4.27006 19.782 4.70121 19.5408 5.05964ZM22.5253 10.2078H23.2362V12.5032H22.5253V10.2078ZM6.84403 11.0407C6.8938 11.0407 6.94295 11.0443 6.9917 11.0484C7.04499 11.0532 7.09869 11.0458 7.14868 11.0268C7.19868 11.0077 7.24364 10.9774 7.28014 10.9383C7.31681 10.8993 7.34426 10.8526 7.36043 10.8017C7.37661 10.7507 7.3811 10.6967 7.37358 10.6437C7.30692 10.1831 7.41363 9.71411 7.67303 9.32765C7.93243 8.94119 8.32605 8.66478 8.77762 8.55198C9.22919 8.43919 9.70656 8.49803 10.1172 8.71712C10.5279 8.9362 10.8426 9.29993 11.0004 9.73781C11.0186 9.78794 11.0478 9.83333 11.0859 9.87064C11.124 9.90794 11.17 9.93619 11.2205 9.95329C11.271 9.9704 11.3247 9.97593 11.3776 9.96946C11.4306 9.963 11.4814 9.94471 11.5263 9.91595C11.6946 9.80812 11.8889 9.74761 12.0888 9.74076C12.2886 9.73391 12.4866 9.78099 12.6619 9.87704C12.8373 9.97309 12.9836 10.1146 13.0854 10.2867C13.1872 10.4587 13.2408 10.6551 13.2406 10.855C13.2406 10.8786 13.2386 10.9017 13.2364 10.935C13.2321 10.9928 13.242 11.0508 13.2653 11.1039C13.2885 11.157 13.3244 11.2036 13.3698 11.2396C13.4152 11.2757 13.4687 11.3001 13.5256 11.3107C13.5826 11.3214 13.6413 11.3179 13.6967 11.3007C13.9123 11.2338 14.1394 11.2123 14.3638 11.2376C14.5881 11.2629 14.8048 11.3344 15.0001 11.4475C15.1955 11.5607 15.3653 11.7131 15.4988 11.8951C15.6324 12.0772 15.7268 12.2849 15.776 12.5052H5.14022C5.2027 12.0976 5.40898 11.7259 5.72175 11.4572C6.03452 11.1885 6.43312 11.0406 6.84545 11.0402L6.84403 11.0407ZM6.00858 24.3634H5.37361L5.70328 22.8751H6.80625L6.00858 24.3634ZM19.9917 24.3634L19.194 22.8751H20.2968L20.6267 24.3634H19.9917ZM21.6155 21.362C21.5568 21.5915 21.4234 21.795 21.2363 21.9402C21.0492 22.0854 20.8191 22.1643 20.5822 22.1642H5.41809C5.18122 22.1643 4.95106 22.0855 4.76394 21.9402C4.57683 21.795 4.44343 21.5916 4.3848 21.362L2.86684 15.4251H23.1332L21.6155 21.362ZM24.3636 14.7142H1.63672V13.8751C1.63693 13.7 1.70655 13.5323 1.83031 13.4085C1.95407 13.2847 2.12186 13.2151 2.29688 13.2149H23.7034C23.8784 13.2151 24.0462 13.2847 24.17 13.4085C24.2937 13.5323 24.3633 13.7 24.3636 13.8751V14.7142Z" fill="#084C83"/>
<path d="M16.7598 4.75319L16.5201 4.99287C16.4591 5.06053 16.4265 5.14899 16.4288 5.24003C16.4312 5.33106 16.4684 5.41772 16.5328 5.48212C16.5972 5.54653 16.6838 5.58377 16.7748 5.58616C16.8659 5.58856 16.9543 5.55593 17.022 5.495L17.2619 5.25531C17.3233 5.18771 17.3563 5.09908 17.3541 5.00779C17.3519 4.91651 17.3147 4.82957 17.2501 4.765C17.1855 4.70044 17.0986 4.66319 17.0073 4.66099C16.916 4.65879 16.8274 4.6918 16.7598 4.75319Z" fill="#084C83"/>
<path d="M15.6221 6.74811C15.6688 6.74817 15.7151 6.73899 15.7582 6.72111C15.8014 6.70323 15.8406 6.67699 15.8736 6.6439L16.1133 6.40422C16.1799 6.33755 16.2174 6.24713 16.2174 6.15285C16.2174 6.05857 16.1799 5.96815 16.1133 5.90148C16.0466 5.83482 15.9562 5.79736 15.8619 5.79736C15.7676 5.79736 15.6772 5.83482 15.6105 5.90148L15.3706 6.14137C15.3209 6.1911 15.2871 6.25444 15.2734 6.32339C15.2597 6.39234 15.2668 6.4638 15.2937 6.52874C15.3206 6.59368 15.3662 6.64918 15.4246 6.68823C15.4831 6.72727 15.5518 6.74811 15.6221 6.74811Z" fill="#084C83"/>
<path d="M14.4614 7.05041L14.2217 7.2903C14.1878 7.3231 14.1607 7.36233 14.1421 7.4057C14.1235 7.44907 14.1137 7.49572 14.1133 7.54292C14.1129 7.59012 14.1219 7.63692 14.1398 7.6806C14.1577 7.72429 14.1841 7.76397 14.2174 7.79734C14.2508 7.83071 14.2905 7.85709 14.3342 7.87496C14.3779 7.89282 14.4247 7.90181 14.4719 7.90139C14.5191 7.90097 14.5658 7.89115 14.6091 7.87251C14.6525 7.85388 14.6917 7.82679 14.7245 7.79283L14.9642 7.55314C14.9972 7.52013 15.0234 7.48094 15.0412 7.43781C15.0591 7.39469 15.0683 7.34846 15.0683 7.30178C15.0683 7.25509 15.0591 7.20887 15.0412 7.16574C15.0234 7.12261 14.9972 7.08342 14.9642 7.05041C14.9312 7.0174 14.892 6.99121 14.8488 6.97335C14.8057 6.95548 14.7595 6.94629 14.7128 6.94629C14.6661 6.94629 14.6199 6.95548 14.5768 6.97335C14.5336 6.99121 14.4944 7.0174 14.4614 7.05041Z" fill="#084C83"/>
<path d="M17.8789 6.69984C17.9358 6.69989 17.9918 6.68628 18.0424 6.66016C18.0929 6.63404 18.1365 6.59617 18.1693 6.54973L18.3651 6.27287C18.393 6.23481 18.413 6.19159 18.424 6.14573C18.4349 6.09987 18.4367 6.05228 18.4291 6.00574C18.4215 5.95919 18.4047 5.91463 18.3797 5.87464C18.3547 5.83464 18.322 5.80002 18.2835 5.77279C18.245 5.74555 18.2015 5.72625 18.1555 5.71601C18.1094 5.70576 18.0618 5.70478 18.0154 5.71312C17.969 5.72145 17.9247 5.73894 17.8851 5.76456C17.8455 5.79018 17.8114 5.82343 17.7848 5.86235L17.5888 6.13921C17.5511 6.19239 17.5288 6.25491 17.5243 6.31993C17.5198 6.38494 17.5332 6.44995 17.5632 6.50783C17.5931 6.56571 17.6384 6.61424 17.6941 6.64811C17.7498 6.68197 17.8137 6.69987 17.8789 6.69984Z" fill="#084C83"/>
<path d="M16.8461 7.18904L16.6503 7.4657C16.6233 7.50381 16.6041 7.54685 16.5938 7.59237C16.5834 7.6379 16.5822 7.68501 16.5901 7.73103C16.606 7.82396 16.6581 7.90676 16.7351 7.96123C16.812 8.01569 16.9075 8.03735 17.0004 8.02145C17.0933 8.00554 17.1761 7.95338 17.2306 7.87642L17.4264 7.59956C17.4791 7.52255 17.4993 7.42792 17.4829 7.33609C17.4664 7.24427 17.4144 7.1626 17.3383 7.10873C17.2621 7.05485 17.1678 7.03307 17.0757 7.0481C16.9837 7.06313 16.9012 7.11375 16.8461 7.18904Z" fill="#084C83"/>
<path d="M15.6709 4.49104C15.7444 4.49111 15.8161 4.46832 15.876 4.42584L16.1527 4.23002C16.2275 4.17478 16.2776 4.09244 16.2924 4.00065C16.3072 3.90886 16.2855 3.81493 16.2318 3.73899C16.1782 3.66306 16.0969 3.61116 16.0054 3.59443C15.914 3.5777 15.8196 3.59746 15.7426 3.64949L15.4657 3.8453C15.4041 3.88888 15.3579 3.95095 15.3339 4.02253C15.3099 4.0941 15.3093 4.17146 15.3322 4.2434C15.3551 4.31533 15.4003 4.37811 15.4613 4.42264C15.5222 4.46716 15.5958 4.49112 15.6713 4.49104H15.6709Z" fill="#084C83"/>
<path d="M14.3443 5.42981C14.4177 5.42986 14.4894 5.40707 14.5493 5.36461L14.8261 5.1686C14.8642 5.14163 14.8967 5.10742 14.9215 5.06792C14.9464 5.02842 14.9633 4.98441 14.9712 4.9384C14.979 4.89238 14.9778 4.84527 14.9674 4.79975C14.9571 4.75422 14.9379 4.71118 14.9109 4.67307C14.884 4.63497 14.8498 4.60255 14.8103 4.57766C14.7708 4.55278 14.7268 4.53592 14.6807 4.52804C14.6347 4.52017 14.5876 4.52143 14.5421 4.53177C14.4966 4.5421 14.4535 4.5613 14.4154 4.58827L14.1386 4.78408C14.0769 4.82767 14.0307 4.88976 14.0067 4.96135C13.9827 5.03295 13.9821 5.11032 14.0051 5.18227C14.028 5.25422 14.0732 5.31699 14.1342 5.3615C14.1952 5.40601 14.2688 5.42994 14.3443 5.42981Z" fill="#084C83"/>
</g>
<defs>
<clipPath id="clip0_2582_204">
<rect width="26" height="26" fill="white"/>
</clipPath>
</defs>
</svg>
