<svg width="23" height="19" viewBox="0 0 23 19" fill="none" xmlns="http://www.w3.org/2000/svg">
<path d="M6.2912 0.312238C6.44003 0.189227 6.60939 0.0997257 6.78961 0.0488441C6.96983 -0.00203759 7.15738 -0.0133032 7.34155 0.0156907C7.52572 0.0446847 7.7029 0.11337 7.86299 0.217826C8.02307 0.322282 8.16291 0.460462 8.27454 0.624476C8.38616 0.788491 8.46738 0.975129 8.51355 1.17373C8.55972 1.37234 8.56994 1.57902 8.54363 1.78198C8.51732 1.98493 8.45499 2.18019 8.36021 2.35661C8.26542 2.53302 8.14003 2.68713 7.9912 2.81014C5.77554 4.64142 4.5062 6.42274 3.77945 7.97768C4.77731 7.69461 5.83041 7.76116 6.79236 8.16808C7.75432 8.57499 8.57734 9.30206 9.14704 10.2482C9.71674 11.1944 10.0048 12.3126 9.97121 13.4475C9.93761 14.5824 9.58401 15.6776 8.95955 16.5808C8.3351 17.484 7.47082 18.1504 6.48684 18.4874C5.50286 18.8243 4.44807 18.8151 3.46908 18.4609C2.49009 18.1068 1.63553 17.4253 1.02419 16.5113C0.412845 15.5972 0.0750904 14.496 0.0578688 13.3607C-0.12366 11.4434 0.123418 9.50633 0.777535 7.71852C1.62329 5.36737 3.27654 2.8039 6.2912 0.312238ZM19.0412 0.312238C19.19 0.189227 19.3594 0.0997257 19.5396 0.0488441C19.7198 -0.00203759 19.9074 -0.0133032 20.0916 0.0156907C20.2757 0.0446847 20.4529 0.11337 20.613 0.217826C20.7731 0.322282 20.9129 0.460462 21.0245 0.624476C21.1362 0.788491 21.2174 0.975129 21.2635 1.17373C21.3097 1.37234 21.3199 1.57902 21.2936 1.78198C21.2673 1.98493 21.205 2.18019 21.1102 2.35661C21.0154 2.53302 20.89 2.68713 20.7412 2.81014C18.5255 4.64142 17.2562 6.42274 16.5295 7.97768C17.5273 7.69461 18.5804 7.76116 19.5424 8.16808C20.5043 8.57499 21.3273 9.30206 21.897 10.2482C22.4667 11.1944 22.7548 12.3126 22.7212 13.4475C22.6876 14.5824 22.334 15.6776 21.7096 16.5808C21.0851 17.484 20.2208 18.1504 19.2368 18.4874C18.2529 18.8243 17.1981 18.8151 16.2191 18.4609C15.2401 18.1068 14.3855 17.4253 13.7742 16.5113C13.1628 15.5972 12.8251 14.496 12.8079 13.3607C12.6263 11.4434 12.8734 9.50633 13.5275 7.71852C14.3747 5.36737 16.0265 2.8039 19.0412 0.312238Z" fill="#00416E"/>
</svg>
